# xmcd CD database file
#
# Track frame offsets:
#	150
#	21158
#	36887
#	55937
#	78423
#	96102
#	120083
#	140646
#	158847
#	175637
#
# Disc length: 2506 seconds
#
# Revision: 0
# Processed by: cddbd v1.5.1PL2 Copyright (c) Steve Scherf et al.
# Submitted via: CDex 1.51
#
DISCID=7409c80a
DTITLE=Jerry Lightfoot - Better Days
DYEAR=1999
DGENRE=Blues
TTITLE0=Don't turn your back on Me
TTITLE1=Never get Caught Again
TTITLE2=Bye-Bye
TTITLE3=My Dyin' Days
TTITLE4=Back Down on Bourbon Street
TTITLE5=Better Days
TTITLE6=Always Sometimes
TTITLE7=The "New" Old West of Texico, N.M. Breakdown
TTITLE8=(I Will) Forever sing the Blues
TTITLE9=God Don't Like it
EXTD=YEAR: 1999
EXTT0=
EXTT1=
EXTT2=
EXTT3=
EXTT4=
EXTT5=
EXTT6=
EXTT7=
EXTT8=
EXTT9=
PLAYORDER=
